<?xml version="1.0" encoding="UTF-8" standalone="no"?>
<!DOCTYPE svg PUBLIC "-//W3C//DTD SVG 20010904//EN"
"http://www.w3.org/TR/2001/REC-SVG-20010904/DTD/svg10.dtd">
<!-- Created with Sodipodi ("http://www.sodipodi.com/") -->
<svg
   id="svg1712"
   sodipodi:version="0.32"
   width="48mm"
   height="48mm"
   sodipodi:docname="rbrss.svg"
   xmlns="http://www.w3.org/2000/svg"
   xmlns:sodipodi="http://sodipodi.sourceforge.net/DTD/sodipodi-0.dtd"
   xmlns:xlink="http://www.w3.org/1999/xlink">
  <defs
     id="defs1714">
    <linearGradient
       id="linearGradient1916">
      <stop
         style="stop-color:#ffffff;stop-opacity:1;"
         offset="0.000000"
         id="stop1917" />
      <stop
         style="stop-color:#ffffff;stop-opacity:0;"
         offset="1.000000"
         id="stop1918" />
    </linearGradient>
    <linearGradient
       id="linearGradient1902">
      <stop
         style="stop-color:#ca0000;stop-opacity:1;"
         offset="0.000000"
         id="stop1903" />
      <stop
         style="stop-color:#ff0000;stop-opacity:1;"
         offset="1.000000"
         id="stop1904" />
    </linearGradient>
    <linearGradient
       xlink:href="#linearGradient1902"
       id="linearGradient1905"
       y2="1.02344"
       x2="0.530435"
       y1="0.00781252"
       x1="0.513044"
       spreadMethod="pad"
       gradientUnits="objectBoundingBox" />
    <linearGradient
       xlink:href="#linearGradient1902"
       id="linearGradient1906"
       x1="0.446902"
       y1="0.162147"
       x2="0.502765"
       y2="1.27691"
       gradientUnits="objectBoundingBox"
       gradientTransform="scale(1.29717,0.770907)"
       spreadMethod="pad" />
    <linearGradient
       xlink:href="#linearGradient1902"
       id="linearGradient1907"
       x1="0.424574"
       y1="0.018628"
       x2="0.507418"
       y2="1.15493"
       gradientUnits="objectBoundingBox"
       gradientTransform="scale(1.19219,0.838794)"
       spreadMethod="pad" />
    <linearGradient
       xlink:href="#linearGradient1902"
       id="linearGradient1908"
       x1="0.470901"
       y1="0.143159"
       x2="0.637678"
       y2="1.10951"
       gradientUnits="objectBoundingBox"
       gradientTransform="scale(1.14531,0.873129)"
       spreadMethod="pad" />
    <linearGradient
       xlink:href="#linearGradient1902"
       id="linearGradient1909"
       x1="0.432286"
       y1="0.0380868"
       x2="0.508571"
       y2="0.906466"
       gradientUnits="objectBoundingBox"
       gradientTransform="scale(0.975022,1.02562)"
       spreadMethod="pad" />
    <linearGradient
       xlink:href="#linearGradient1916"
       id="linearGradient1915"
       x1="0.502058"
       y1="0.0390639"
       x2="0.625514"
       y2="0.984375"
       gradientUnits="objectBoundingBox"
       spreadMethod="pad" />
    <linearGradient
       xlink:href="#linearGradient1916"
       id="linearGradient1926"
       x1="0.530058"
       y1="0.0468785"
       x2="0.68306"
       y2="0.921875"
       gradientUnits="objectBoundingBox"
       spreadMethod="pad" />
    <linearGradient
       xlink:href="#linearGradient1916"
       id="linearGradient1927"
       x1="0.460829"
       y1="0.046875"
       x2="0.483871"
       y2="1.13281"
       gradientUnits="objectBoundingBox"
       spreadMethod="pad" />
    <linearGradient
       xlink:href="#linearGradient1916"
       id="linearGradient1929"
       x1="0.400004"
       y1="1.77922e-06"
       x2="0.782857"
       y2="1.125"
       gradientUnits="objectBoundingBox"
       spreadMethod="pad" />
    <linearGradient
       xlink:href="#linearGradient1916"
       id="linearGradient1931"
       x1="0.573662"
       y1="0.101556"
       x2="0.852714"
       y2="1.03906"
       gradientUnits="objectBoundingBox"
       spreadMethod="pad" />
    <linearGradient
       xlink:href="#linearGradient1916"
       id="linearGradient1933"
       x1="0.528806"
       y1="0.132809"
       x2="0.575917"
       y2="0.851562"
       gradientUnits="objectBoundingBox"
       spreadMethod="pad" />
  </defs>
  <sodipodi:namedview
     id="base"
     gridspacingx="0.5mm"
     gridspacingy="0.5mm"
     showgrid="true"
     snaptogrid="true" />
  <path
     style="fill:none;fill-rule:evenodd;stroke:#00f200;stroke-opacity:1;stroke-width:2.625;stroke-linejoin:round;stroke-linecap:round;fill-opacity:1;stroke-dasharray:none;stroke-dashoffset:0;"
     d="M 53.1496 10.0984 C 54.9213 26.5748 69.626 24.4488 69.626 24.4488 L 69.626 24.4488 L 69.626 24.9803 L 69.626 24.9803 "
     id="path595"
     transform="matrix(9.476122e-17,0.537633,-1.547619,3.291944e-17,125.4710,5.086422)" />
  <path
     style="fill:none;fill-rule:evenodd;stroke:#00f200;stroke-opacity:1;stroke-width:2.625;stroke-linejoin:round;stroke-linecap:round;fill-opacity:1;stroke-dasharray:none;stroke-dashoffset:0;"
     d="M 53.1496 10.0984 C 54.9213 26.5748 69.626 24.4488 69.626 24.4488 L 69.626 24.4488 L 69.626 24.9803 L 69.626 24.9803 "
     id="path593"
     transform="matrix(1.000000,0.000000,0.000000,0.404762,40.21652,20.00703)" />
  <path
     style="fill:none;fill-rule:evenodd;stroke:#00f200;stroke-opacity:1;stroke-width:2.625;stroke-linejoin:round;stroke-linecap:round;fill-opacity:1;stroke-dasharray:none;stroke-dashoffset:0;"
     d="M 53.1496 10.0984 C 54.9213 26.5748 69.626 24.4488 69.626 24.4488 L 69.626 24.4488 L 69.626 24.9803 L 69.626 24.9803 "
     id="path577"
     transform="matrix(-8.018248e-17,0.430107,1.309523,2.633558e-17,47.01214,12.57305)" />
  <path
     style="fill:none;fill-rule:evenodd;stroke:#00f200;stroke-opacity:1;stroke-width:2.625;stroke-linejoin:round;stroke-linecap:round;fill-opacity:1;stroke-dasharray:none;stroke-dashoffset:0;"
     d="M 53.1496 10.0984 C 54.9213 26.5748 69.626 24.4488 69.626 24.4488 L 69.626 24.4488 L 69.626 24.9803 L 69.626 24.9803 "
     id="path576"
     transform="matrix(-1.000000,0.000000,0.000000,0.476190,128.0906,19.99439)" />
  <path
     style="font-size:12;fill:url(#linearGradient1907);fill-rule:evenodd;stroke:#800000;stroke-width:0.681078;fill-opacity:1;stroke-dasharray:none;stroke-opacity:1;"
     d="M 57.8567 58.6367 C 57.8567 65.7233 52.5417 81.6682 47.2267 81.6682 C 39.9618 81.6682 36.5968 69.2666 36.5968 63.9517 C 36.5968 53.3217 41.9118 48.0068 50.7701 48.0068 C 55.6599 48.0068 57.8567 51.5501 57.8567 58.6367 z "
     id="path1899"
     sodipodi:nodetypes="cssss"
     transform="matrix(1.000000,0.000000,0.000000,0.842104,36.04100,-20.93855)" />
  <path
     style="font-size:12;fill:url(#linearGradient1933);fill-rule:evenodd;stroke-width:1pt;"
     d="M 129.331 134.646 C 122.244 150.591 122.244 124.016 99.2126 148.819 C 100.984 145.276 102.756 143.504 102.756 136.417 C 102.756 132.874 104.528 131.102 113.386 129.331 C 120.472 127.559 131.102 127.559 129.331 134.646 z "
     id="path1932"
     sodipodi:nodetypes="ccccc" />
  <path
     style="font-size:12;fill:url(#linearGradient1926);fill-rule:evenodd;stroke-width:1pt;"
     d="M 92.126 23.0315 C 92.126 25.9654 93.2882 21.2598 90.3543 21.2598 C 79.7244 21.2598 81.4961 30.1181 74.4094 28.3465 C 74.4094 21.2598 79.7244 15.9449 83.2677 15.9449 C 88.5827 15.9449 92.126 15.9449 92.126 23.0315 z "
     id="path1925"
     sodipodi:nodetypes="ccccc"
     transform="matrix(1.000000,0.000000,0.000000,0.842104,0.000000,7.552872)" />
</svg>
